<?xml version="1.0" encoding="UTF-8"?>
<svg id="Layer_1" xmlns="http://www.w3.org/2000/svg" version="1.1" viewBox="0 0 800 800">
  <!-- Generator: Adobe Illustrator 30.3.0, SVG Export Plug-In . SVG Version: 2.1.3 Build 182)  -->
  <defs>
    <style>
      .st0 {
        fill: #ff9d08;
      }

      .st1 {
        fill: #390808;
      }
    </style>
  </defs>
  <rect class="st0" x="130" y="134.89" width="549" height="502"/>
  <g id="_x32_069a460dcf28295e231f3111e03585e">
    <path class="st1" d="M355.61,340.61l29.98,93.89h-97.85l29.41-93.89c6.79-22.62,12.44-49.21,18.1-71.27h1.13c5.66,22.06,11.88,48.08,19.23,71.27ZM799.22,133.85v532.29c0,73.19-59.88,133.07-133.07,133.07H133.85c-73.19,0-133.07-59.88-133.07-133.07V133.85C.78,60.66,60.66.78,133.85.78h532.29c73.19,0,133.07,59.88,133.07,133.07ZM506.63,595.13l-123.87-381.21h-88.8l-122.17,381.21h71.83l32.81-108.03h121.04l34.5,108.03h74.66ZM624.25,319.68h-70.14v275.45h70.14v-275.45ZM628.21,242.76c-.57-21.49-15.27-37.89-39.03-37.89s-39.03,16.4-39.03,37.89,15.27,37.33,38.46,37.33c24.32,0,39.59-16.4,39.59-37.33Z"/>
  </g>
</svg>